<svg width="18" height="18" viewBox="0 0 18 18" fill="none" xmlns="http://www.w3.org/2000/svg">
<path d="M6.50002 0.833008V2.49967H11.5V0.833008H13.1667V2.49967H16.5C16.9603 2.49967 17.3334 2.87277 17.3334 3.33301V16.6663C17.3334 17.1266 16.9603 17.4997 16.5 17.4997H1.50002C1.03979 17.4997 0.666687 17.1266 0.666687 16.6663V3.33301C0.666687 2.87277 1.03979 2.49967 1.50002 2.49967H4.83335V0.833008H6.50002ZM15.6667 9.16634H2.33335V15.833H15.6667V9.16634ZM4.83335 4.16634H2.33335V7.49967H15.6667V4.16634H13.1667V5.83301H11.5V4.16634H6.50002V5.83301H4.83335V4.16634Z" fill="currentColor"/>
</svg>
