<svg width="16" height="18" viewBox="0 0 16 18" fill="none" xmlns="http://www.w3.org/2000/svg">
<path d="M3.42073 0.666992H12.5874C12.8497 0.666992 13.0967 0.790484 13.2541 1.00033L15.5041 4.00033V16.5003C15.5041 16.9606 15.131 17.3337 14.6707 17.3337H1.33739C0.877159 17.3337 0.504059 16.9606 0.504059 16.5003V4.00033L2.75406 1.00033C2.91144 0.790484 3.15843 0.666992 3.42073 0.666992ZM13.4207 4.00033L12.1707 2.33366H3.83739L2.58739 4.00033H13.4207ZM5.50406 7.33366H3.83739V9.00033C3.83739 11.3015 5.70288 13.167 8.00408 13.167C10.3052 13.167 12.1707 11.3015 12.1707 9.00033V7.33366H10.5041V9.00033C10.5041 10.3811 9.38474 11.5003 8.00408 11.5003C6.62333 11.5003 5.50406 10.3811 5.50406 9.00033V7.33366Z" 
fill="currentColor"
/>
</svg>
