<svg width="18" height="18" viewBox="0 0 18 18" xmlns="http://www.w3.org/2000/svg">
<path 
d="M8.99999 17.3337C4.39761 17.3337 0.666656 13.6027 0.666656 9.00033C0.666656 4.39795 4.39761 0.666992 8.99999 0.666992C13.6023 0.666992 17.3333 4.39795 17.3333 9.00033C17.3333 13.6027 13.6023 17.3337 8.99999 17.3337ZM7.09167 15.3898C6.28952 13.6886 5.79776 11.8122 5.68942 9.83366H2.3849C2.71499 12.4807 4.59698 14.6459 7.09167 15.3898ZM7.35891 9.83366C7.48424 11.866 8.06482 13.7751 8.99999 15.4603C9.93516 13.7751 10.5157 11.866 10.6411 9.83366H7.35891ZM15.6151 9.83366H12.3106C12.2022 11.8122 11.7105 13.6886 10.9083 15.3898C13.403 14.6459 15.285 12.4807 15.6151 9.83366ZM2.3849 8.16699H5.68942C5.79776 6.18847 6.28952 4.31205 7.09167 2.61079C4.59698 3.35477 2.71499 5.51991 2.3849 8.16699ZM7.35891 8.16699H10.6411C10.5157 6.13468 9.93516 4.22553 8.99999 2.54032C8.06482 4.22553 7.48424 6.13468 7.35891 8.16699ZM10.9083 2.61079C11.7105 4.31205 12.2022 6.18847 12.3106 8.16699H15.6151C15.285 5.51991 13.403 3.35477 10.9083 2.61079Z"
fill="currentColor"
/>
</svg>
